<svg xmlns="http://www.w3.org/2000/svg" xmlns:xlink="http://www.w3.org/1999/xlink" width="778.305" height="79.86" viewBox="0 0 778.305 79.86">
  <defs>
    <clipPath id="clip-path">
      <rect id="Rectangle_1" data-name="Rectangle 1" width="778.305" height="79.86" fill="none"/>
    </clipPath>
  </defs>
  <g id="Amiculum_logo" data-name="Amiculum logo" transform="translate(-1145.389 -8352.055)">
    <path id="Path_1" data-name="Path 1" d="M1386.138,8357.034l-9.47,21.146h18.824l-9.354-21.146Zm11.141,25.191h-22.4l-5.208,11.656a2.163,2.163,0,0,1-1.974,1.28h0a2.164,2.164,0,0,1-1.97-3.058l16.851-37.147a3.978,3.978,0,0,1,3.622-2.334h0a3.982,3.982,0,0,1,3.622,2.334l16.854,37.147a2.164,2.164,0,0,1-1.97,3.058h-.352a2.156,2.156,0,0,1-1.98-1.3l-5.093-11.638Z" transform="translate(194.495 0.502)" fill="#fff"/>
    <path id="Path_2" data-name="Path 2" d="M1436.7,8352.624h0a3.881,3.881,0,0,1,3.88,3.879v36.631a2.024,2.024,0,0,1-2.023,2.023h-.362a2.026,2.026,0,0,1-2.025-2.023v-34.729h-.115l-17.848,34.949a3.308,3.308,0,0,1-2.944,1.8h0a3.306,3.306,0,0,1-2.948-1.809l-17.786-35h-.115v34.79a2.026,2.026,0,0,1-2.025,2.023h-.367a2.023,2.023,0,0,1-2.023-2.023V8356.5a3.88,3.88,0,0,1,3.88-3.879h.183a3.881,3.881,0,0,1,3.454,2.111l17.861,34.882,17.867-34.882a3.877,3.877,0,0,1,3.454-2.111Z" transform="translate(216.117 0.503)" fill="#fff"/>
    <path id="Path_3" data-name="Path 3" d="M1423.3,8352.624h.362a2.024,2.024,0,0,1,2.023,2.023v38.486a2.024,2.024,0,0,1-2.023,2.023h-.362a2.024,2.024,0,0,1-2.023-2.023v-38.486a2.024,2.024,0,0,1,2.023-2.023Z" transform="translate(243.75 0.503)" fill="#fff"/>
    <path id="Path_4" data-name="Path 4" d="M1468.315,8379.453a2.184,2.184,0,0,1,2.151,2.656c-2.029,8.277-9.519,14.623-20.575,14.623-13.819,0-22.636-8.7-22.636-22.339,0-9.714,6.016-22.339,22.636-22.339,8.461,0,17.562,3.506,20.114,12.581a2.213,2.213,0,0,1-2.1,2.848h0a2.161,2.161,0,0,1-2.091-1.551c-1.94-6.97-8.747-9.832-15.923-9.832-10.54,0-17.869,5.9-17.869,18.293,0,9.475,4.944,18.287,17.869,18.287,9.45,0,14.437-4.457,16.277-11.636a2.162,2.162,0,0,1,2.106-1.592Z" transform="translate(249.03)" fill="#fff"/>
    <path id="Path_5" data-name="Path 5" d="M1491.954,8378.714c0,7.748-2.151,17.519-19.009,17.519s-19-9.771-19-17.519v-24.067a2.023,2.023,0,0,1,2.023-2.023h.36a2.023,2.023,0,0,1,2.023,2.023v24.067c0,11.14,7.212,13.465,14.595,13.465s14.6-2.325,14.6-13.465v-24.067a2.022,2.022,0,0,1,2.023-2.023h.362a2.023,2.023,0,0,1,2.023,2.023v24.067Z" transform="translate(272.61 0.502)" fill="#fff"/>
    <path id="Path_6" data-name="Path 6" d="M1480.446,8352.623h.356a2.023,2.023,0,0,1,2.025,2.023v36.461h24.964a2.025,2.025,0,0,1,2.025,2.025h0a2.025,2.025,0,0,1-2.025,2.023h-26.827a2.541,2.541,0,0,1-2.541-2.542v-37.968a2.022,2.022,0,0,1,2.023-2.023Z" transform="translate(294.237 0.502)" fill="#fff"/>
    <path id="Path_7" data-name="Path 7" d="M1535.307,8378.714c0,7.748-2.145,17.519-19,17.519s-19-9.771-19-17.519v-24.067a2.023,2.023,0,0,1,2.023-2.023h.362a2.023,2.023,0,0,1,2.025,2.023v24.067c0,11.14,7.206,13.465,14.594,13.465s14.595-2.325,14.595-13.465v-24.067a2.023,2.023,0,0,1,2.023-2.023h.364a2.022,2.022,0,0,1,2.023,2.023v24.067Z" transform="translate(310.915 0.502)" fill="#fff"/>
    <path id="Path_8" data-name="Path 8" d="M1568.471,8352.623h0a3.885,3.885,0,0,1,3.886,3.883v36.627a2.026,2.026,0,0,1-2.025,2.023h-.362a2.025,2.025,0,0,1-2.025-2.023v-34.727h-.122l-17.839,34.945a3.31,3.31,0,0,1-2.948,1.8h0a3.3,3.3,0,0,1-2.948-1.81l-17.782-35h-.125v34.789a2.024,2.024,0,0,1-2.023,2.023h-.36a2.025,2.025,0,0,1-2.023-2.023v-36.627a3.883,3.883,0,0,1,3.885-3.883h.173a3.878,3.878,0,0,1,3.458,2.113l17.863,34.878,17.856-34.878a3.887,3.887,0,0,1,3.458-2.113Z" transform="translate(332.54 0.502)" fill="#fff"/>
    <g id="Group_2" data-name="Group 2" transform="translate(1145.389 8352.055)">
      <g id="Group_1" data-name="Group 1" clip-path="url(#clip-path)">
        <path id="Path_9" data-name="Path 9" d="M1556.861,8358.7h1.234c1.053,0,2.015-.054,2.015-1.264,0-1.012-.876-1.172-1.678-1.172h-1.571v2.436Zm-1.194-3.394h2.963c1.814,0,2.669.716,2.669,2.186a1.972,1.972,0,0,1-2.011,2.085l2.187,3.37H1560.2l-2.091-3.287h-1.251v3.287h-1.194V8355.3Zm2.556,9.41a5.582,5.582,0,1,0-5.413-5.612,5.4,5.4,0,0,0,5.413,5.612m0-12.121a6.541,6.541,0,1,1-6.6,6.509,6.508,6.508,0,0,1,6.6-6.509" transform="translate(-786.478 -8351.58)" fill="#fff"/>
        <path id="Path_10" data-name="Path 10" d="M1154.385,8352.6h0a9,9,0,0,0-9,9v24.533a8.994,8.994,0,0,0,9,8.993h0a9,9,0,0,0,9-8.993v-24.533a9,9,0,0,0-9-9Z" transform="translate(-1145.389 -8351.574)" fill="#fff"/>
      </g>
    </g>
    <path id="Path_11" data-name="Path 11" d="M1197.143,8352.6h0a9,9,0,0,0-9,9v24.531a8.994,8.994,0,0,0,9,8.993h0a8.994,8.994,0,0,0,8.994-8.993v-24.531a9,9,0,0,0-8.994-9Z" transform="translate(37.777 0.481)" fill="#fd951c"/>
    <path id="Path_12" data-name="Path 12" d="M1175.764,8352.6h0a9,9,0,0,0-9,9v24.531a8.994,8.994,0,0,0,9,8.993h0a9,9,0,0,0,9-8.993v-24.531a9,9,0,0,0-9-9Z" transform="translate(18.888 0.481)" fill="#c61f09"/>
    <path id="Path_13" data-name="Path 13" d="M1325.418,8395.121h0a8.994,8.994,0,0,0,8.994-8.993v-24.533a9,9,0,0,0-8.994-9h0a9,9,0,0,0-9,9v24.533a8.994,8.994,0,0,0,9,8.993Z" transform="translate(151.108 0.481)" fill="#a6a49f"/>
    <path id="Path_14" data-name="Path 14" d="M1346.8,8395.121h0a8.993,8.993,0,0,0,8.994-8.993v-24.533a8.994,8.994,0,0,0-8.994-9h0a9,9,0,0,0-9,9v24.533a8.994,8.994,0,0,0,9,8.993Z" transform="translate(169.997 0.481)" fill="#861e7c"/>
    <path id="Path_15" data-name="Path 15" d="M1282.66,8395.121h0a8.994,8.994,0,0,0,8.994-8.993v-24.533a9,9,0,0,0-8.994-9h0a9,9,0,0,0-9,9v24.533a8.994,8.994,0,0,0,9,8.993Z" transform="translate(113.332 0.481)" fill="#383097"/>
    <path id="Path_16" data-name="Path 16" d="M1304.038,8395.121h0a9,9,0,0,0,9-8.993v-24.533a9,9,0,0,0-9-9h0a9,9,0,0,0-9,9v24.533a8.994,8.994,0,0,0,9,8.993Z" transform="translate(132.22 0.481)" fill="#a9df43"/>
    <path id="Path_17" data-name="Path 17" d="M1261.28,8352.6h0a9,9,0,0,0-9,9v24.533a9,9,0,0,0,9,8.993h0a8.994,8.994,0,0,0,9-8.993v-24.533a9,9,0,0,0-9-9Z" transform="translate(94.442 0.481)" fill="#5eadd1"/>
    <path id="Path_18" data-name="Path 18" d="M1239.9,8352.6h0a9,9,0,0,0-8.994,9v24.533a8.994,8.994,0,0,0,8.994,8.993h0a8.994,8.994,0,0,0,9-8.993v-24.533a9,9,0,0,0-9-9Z" transform="translate(75.555 0.481)" fill="#347280"/>
    <g id="Group_4" data-name="Group 4" transform="translate(1145.389 8352.055)">
      <g id="Group_3" data-name="Group 3" clip-path="url(#clip-path)">
        <path id="Path_19" data-name="Path 19" d="M1218.521,8352.6h0a9,9,0,0,0-9,9v24.533a8.994,8.994,0,0,0,9,8.993h0a8.994,8.994,0,0,0,9-8.993v-24.533a9,9,0,0,0-9-9Z" transform="translate(-1088.723 -8351.574)" fill="#8a52aa"/>
        <path id="Path_20" data-name="Path 20" d="M1146.623,8387.248h0a1.236,1.236,0,0,1,1.036.561l6.722,10.354h.038V8388.1a.848.848,0,0,1,.85-.848h0a.847.847,0,0,1,.847.848v11.34a1.272,1.272,0,0,1-1.271,1.271h0a1.262,1.262,0,0,1-1.064-.578l-6.656-10.225h-.038v9.957a.846.846,0,0,1-.848.846h0a.847.847,0,0,1-.848-.846v-11.379a1.233,1.233,0,0,1,1.234-1.234Z" transform="translate(-1145.389 -8320.961)" fill="#fff"/>
      </g>
    </g>
    <path id="Path_21" data-name="Path 21" d="M1154.5,8398.891l8.125-10.135h-6.975a.754.754,0,0,1-.753-.754h0a.752.752,0,0,1,.753-.754h7.971a1.114,1.114,0,0,1,1.115,1.115v0a1.119,1.119,0,0,1-.245.7l-8.107,10.137h7.824a.754.754,0,0,1,.754.754h0a.754.754,0,0,1-.754.754h-8.837a1.115,1.115,0,0,1-1.115-1.117h0a1.127,1.127,0,0,1,.243-.7Z" transform="translate(7.835 31.093)" fill="#fff"/>
    <path id="Path_22" data-name="Path 22" d="M1171.452,8389.039a3.365,3.365,0,1,1-3.354,3.354,3.355,3.355,0,0,1,3.354-3.354Z" transform="translate(20.064 32.676)" fill="#fff"/>
    <path id="Path_23" data-name="Path 23" d="M1190.585,8391.434a.851.851,0,0,1-.795-.574,3.473,3.473,0,0,0-3.5-2.209c-3.108,0-4.424,2.563-4.424,5.287,0,2.98,1.316,5.467,4.443,5.467a3.59,3.59,0,0,0,3.675-3.07.851.851,0,0,1,.827-.7h0a.851.851,0,0,1,.821,1.057,5.172,5.172,0,0,1-5.468,4.174c-4.042,0-6.037-3-6.037-6.8s2.158-6.877,6.182-6.877a5.115,5.115,0,0,1,5.1,3.123.844.844,0,0,1-.8,1.121Z" transform="translate(30.696 31.044)" fill="#fff"/>
    <path id="Path_24" data-name="Path 24" d="M1190.737,8387.248h0a.9.9,0,0,1,.895.895v4.893h7.088v-4.893a.9.9,0,0,1,.9-.895h0a.9.9,0,0,1,.895.895v11.67a.9.9,0,0,1-.895.895h0a.9.9,0,0,1-.9-.895v-5.27h-7.088v5.27a.9.9,0,0,1-.895.895h0a.9.9,0,0,1-.895-.895v-11.67a.9.9,0,0,1,.895-.895Z" transform="translate(39.274 31.093)" fill="#fff"/>
    <path id="Path_25" data-name="Path 25" d="M1200.225,8387.248h0a.9.9,0,0,1,.9.895v11.668a.9.9,0,0,1-.9.9h0a.9.9,0,0,1-.9-.9v-11.668a.9.9,0,0,1,.9-.895Z" transform="translate(47.657 31.093)" fill="#fff"/>
    <path id="Path_26" data-name="Path 26" d="M1205.315,8387.248h0a1.231,1.231,0,0,1,1.034.561l6.724,10.354h.038V8388.1a.847.847,0,0,1,.847-.848h0a.848.848,0,0,1,.85.848v11.379a1.235,1.235,0,0,1-1.234,1.232h-.058a1.233,1.233,0,0,1-1.034-.561l-6.666-10.242h-.038v9.957a.847.847,0,0,1-.848.846h0a.848.848,0,0,1-.849-.846v-11.379a1.233,1.233,0,0,1,1.234-1.234Z" transform="translate(51.855 31.093)" fill="#fff"/>
    <path id="Path_27" data-name="Path 27" d="M1216.539,8395.148h4.562l-2.243-6.277h-.038l-2.281,6.277Zm2.328-7.9h0a1.448,1.448,0,0,1,1.349.922l4.445,11.371a.856.856,0,0,1-.8,1.166h-.126a.854.854,0,0,1-.8-.564l-1.266-3.488h-5.692l-1.3,3.494a.852.852,0,0,1-.8.559h0a.854.854,0,0,1-.8-1.166l4.443-11.371a1.448,1.448,0,0,1,1.35-.922Z" transform="translate(59.746 31.093)" fill="#fff"/>
    <path id="Path_28" data-name="Path 28" d="M1230.661,8389.039a3.365,3.365,0,1,1-3.356,3.354,3.355,3.355,0,0,1,3.356-3.354Z" transform="translate(72.373 32.676)" fill="#fff"/>
    <path id="Path_29" data-name="Path 29" d="M1248.21,8391.32a.817.817,0,0,1-.782-.623c-.386-1.434-1.528-2.047-3.123-2.047-1.48,0-2.925.531-2.925,2.232,0,3.219,8.355.949,8.355,6.088,0,2.783-2.723,3.9-5.1,3.9-2.618,0-4.869-1.156-5.315-3.666a.8.8,0,0,1,.795-.941h.043a.82.82,0,0,1,.793.684c.345,1.709,1.983,2.461,3.739,2.461,1.573,0,3.309-.494,3.309-2.377,0-3.586-8.355-1.227-8.355-6.018,0-2.631,2.34-3.82,4.735-3.82,2.343,0,4.208.973,4.69,3.15a.807.807,0,0,1-.785.98Z" transform="translate(82.977 31.044)" fill="#fff"/>
    <path id="Path_30" data-name="Path 30" d="M1249.253,8387.248h0a.894.894,0,0,1,.895.895v11.67a.9.9,0,0,1-.895.895h0a.9.9,0,0,1-.895-.895v-11.67a.9.9,0,0,1,.895-.895Z" transform="translate(90.974 31.093)" fill="#fff"/>
    <path id="Path_31" data-name="Path 31" d="M1254.343,8387.248h0a1.233,1.233,0,0,1,1.034.561l6.724,10.354h.037V8388.1a.847.847,0,0,1,.848-.848h0a.848.848,0,0,1,.849.848v11.379a1.236,1.236,0,0,1-1.236,1.232h-.056a1.233,1.233,0,0,1-1.034-.561l-6.666-10.242h-.04v9.957a.847.847,0,0,1-.848.846h0a.846.846,0,0,1-.847-.846v-11.379a1.232,1.232,0,0,1,1.234-1.234Z" transform="translate(95.171 31.093)" fill="#fff"/>
    <path id="Path_32" data-name="Path 32" d="M1272.739,8398.928a5.214,5.214,0,0,1-4.187,1.939c-3.9,0-6.218-3.164-6.218-6.582,0-3.8,2.083-7.1,6.218-7.1,2.456,0,4.515.961,5.328,3.207a.848.848,0,0,1-.8,1.127h0a.854.854,0,0,1-.8-.59,3.6,3.6,0,0,0-3.726-2.283c-3.164,0-4.481,2.762-4.481,5.543,0,2.725,1.573,5.211,4.481,5.211a3.925,3.925,0,0,0,4.187-4.26H1269.3a.732.732,0,0,1-.733-.73h0a.733.733,0,0,1,.733-.734h4.259a.731.731,0,0,1,.731.734v5.518a.623.623,0,0,1-.623.623h0a.621.621,0,0,1-.6-.453l-.328-1.174Z" transform="translate(103.322 31.044)" fill="#fff"/>
    <path id="Path_33" data-name="Path 33" d="M1275.471,8395.148h4.562l-2.243-6.277h-.038l-2.281,6.277Zm2.328-7.9h0a1.448,1.448,0,0,1,1.351.922l4.443,11.373a.854.854,0,0,1-.8,1.164h-.128a.854.854,0,0,1-.8-.564l-1.266-3.488H1274.9l-1.3,3.494a.849.849,0,0,1-.8.559h0a.854.854,0,0,1-.8-1.164l4.443-11.373a1.448,1.448,0,0,1,1.35-.922Z" transform="translate(111.814 31.093)" fill="#fff"/>
    <path id="Path_34" data-name="Path 34" d="M1283.19,8393.7h3.505c2.036.018,2.94-.869,2.94-2.469s-.9-2.471-2.94-2.471h-3.505v4.939Zm-1.791-5.553a.9.9,0,0,1,.9-.895h5c2.7,0,4.127,1.471,4.127,3.979s-1.431,4-4.127,3.975h-4.11v4.609a.9.9,0,0,1-.895.9h0a.9.9,0,0,1-.9-.9v-11.668Z" transform="translate(120.165 31.093)" fill="#fff"/>
    <path id="Path_35" data-name="Path 35" d="M1296.09,8399.4c3.181,0,4.517-2.744,4.517-5.377s-1.336-5.377-4.517-5.377-4.517,2.744-4.517,5.377,1.335,5.377,4.517,5.377Zm0-12.215c4.151,0,6.253,3.271,6.253,6.838s-2.1,6.84-6.253,6.84-6.253-3.273-6.253-6.84,2.1-6.838,6.253-6.838Z" transform="translate(127.621 31.044)" fill="#fff"/>
    <path id="Path_36" data-name="Path 36" d="M1305.525,8393.449c1.659,0,3.11-.436,3.11-2.4a2.12,2.12,0,0,0-2.394-2.3h-4.449v4.693Zm-5.522-5.307a.894.894,0,0,1,.895-.895h5.439c2.542,0,4.089,1.355,4.089,3.523a3.193,3.193,0,0,1-2.337,3.412v.039c1.565.3,1.866,1.471,2.017,2.77a15.293,15.293,0,0,0,.268,2.621.89.89,0,0,1-.874,1.094h0a.9.9,0,0,1-.889-.773c-.094-.693-.023-1.648-.2-2.545-.207-1.3-.508-2.432-2.243-2.432h-4.374v4.855a.9.9,0,0,1-.895.895h0a.9.9,0,0,1-.895-.895v-11.67Z" transform="translate(136.602 31.093)" fill="#fff"/>
    <path id="Path_37" data-name="Path 37" d="M1310.03,8387.248h7.649a.754.754,0,0,1,.755.754h0a.755.755,0,0,1-.755.754h-6.747v4.279h6.238a.755.755,0,0,1,.755.754h0a.754.754,0,0,1-.755.754h-6.238v4.656h6.8a.754.754,0,0,1,.755.754h0a.754.754,0,0,1-.755.754h-7.705a.892.892,0,0,1-.891-.891v-11.68a.889.889,0,0,1,.891-.889Z" transform="translate(144.674 31.093)" fill="#fff"/>
    <path id="Path_38" data-name="Path 38" d="M1325.776,8389.039a3.365,3.365,0,1,1-3.356,3.354,3.354,3.354,0,0,1,3.356-3.354Z" transform="translate(156.408 32.676)" fill="#fff"/>
    <path id="Path_39" data-name="Path 39" d="M1345.252,8395.779c0,3.31-1.865,5.029-5.138,5.029-3.364,0-5.357-1.555-5.357-5.029v-7.649a.867.867,0,0,1,.868-.868h0a.868.868,0,0,1,.868.868v7.563a3.326,3.326,0,0,0,3.656,3.651c2.19,0,3.366-1.255,3.366-3.565v-7.649a.867.867,0,0,1,.868-.868h0a.867.867,0,0,1,.868.868v7.649Z" transform="translate(167.307 31.106)" fill="#fff"/>
    <path id="Path_40" data-name="Path 40" d="M1500.766,8395.779c0,3.31-1.867,5.029-5.138,5.029-3.364,0-5.359-1.555-5.359-5.029v-7.649a.867.867,0,0,1,.868-.868h0a.867.867,0,0,1,.868.868v7.563a3.327,3.327,0,0,0,3.658,3.651c2.19,0,3.366-1.255,3.366-3.565v-7.649a.867.867,0,0,1,.868-.868h0a.867.867,0,0,1,.868.868v7.649Z" transform="translate(304.703 31.106)" fill="#fff"/>
    <path id="Path_41" data-name="Path 41" d="M1535.875,8395.779c0,3.31-1.865,5.029-5.14,5.029-3.364,0-5.357-1.555-5.357-5.029v-7.649a.868.868,0,0,1,.868-.868h0a.869.869,0,0,1,.87.868v7.563a3.326,3.326,0,0,0,3.656,3.651c2.189,0,3.364-1.255,3.364-3.565v-7.649a.867.867,0,0,1,.868-.868h0a.869.869,0,0,1,.87.868v7.649Z" transform="translate(335.722 31.106)" fill="#fff"/>
    <path id="Path_42" data-name="Path 42" d="M1346.852,8395.148h4.564l-2.245-6.277h-.038l-2.281,6.277Zm2.328-7.9h0a1.448,1.448,0,0,1,1.35.922l4.443,11.371a.854.854,0,0,1-.8,1.166h-.126a.854.854,0,0,1-.8-.564l-1.266-3.488h-5.694l-1.3,3.494a.856.856,0,0,1-.8.559h0a.854.854,0,0,1-.8-1.166l4.443-11.371a1.446,1.446,0,0,1,1.349-.922Z" transform="translate(174.88 31.093)" fill="#fff"/>
    <path id="Path_43" data-name="Path 43" d="M1353.672,8387.248h7.647a.753.753,0,0,1,.755.754h0a.754.754,0,0,1-.755.754h-6.749v4.279h6.24a.754.754,0,0,1,.753.754h0a.752.752,0,0,1-.753.754h-6.24v4.656h6.807a.754.754,0,0,1,.754.754h0a.754.754,0,0,1-.754.754h-7.705a.892.892,0,0,1-.891-.891v-11.68a.889.889,0,0,1,.891-.889Z" transform="translate(183.232 31.093)" fill="#fff"/>
    <path id="Path_44" data-name="Path 44" d="M1369.418,8389.039a3.365,3.365,0,1,1-3.356,3.354,3.355,3.355,0,0,1,3.356-3.354Z" transform="translate(194.965 32.676)" fill="#fff"/>
    <path id="Path_45" data-name="Path 45" d="M1386.967,8391.32a.817.817,0,0,1-.782-.623c-.384-1.434-1.528-2.047-3.121-2.047-1.484,0-2.927.531-2.927,2.232,0,3.219,8.355.949,8.355,6.088,0,2.783-2.723,3.9-5.1,3.9-2.616,0-4.869-1.156-5.313-3.666a.8.8,0,0,1,.793-.941h.043a.82.82,0,0,1,.795.684c.343,1.709,1.983,2.461,3.739,2.461,1.573,0,3.309-.494,3.309-2.377,0-3.586-8.355-1.227-8.355-6.018,0-2.631,2.339-3.82,4.737-3.82,2.341,0,4.2.973,4.688,3.15a.808.808,0,0,1-.787.98Z" transform="translate(205.569 31.044)" fill="#fff"/>
    <path id="Path_46" data-name="Path 46" d="M1398.625,8400.707h-.008a1.215,1.215,0,0,1-1.171-.9l-2.829-10.414h-.036l-2.867,10.418a1.212,1.212,0,0,1-1.169.893h0a1.213,1.213,0,0,1-1.176-.912l-2.94-11.477a.856.856,0,0,1,.829-1.07h.045a.855.855,0,0,1,.834.658l2.482,10.539h.04l2.765-10.264a1.262,1.262,0,0,1,1.219-.934h0a1.268,1.268,0,0,1,1.224.938l2.727,10.26h.036l2.576-10.545a.853.853,0,0,1,.833-.652h0a.856.856,0,0,1,.827,1.078l-3.07,11.48a1.214,1.214,0,0,1-1.172.9Z" transform="translate(212.937 31.093)" fill="#fff"/>
    <path id="Path_47" data-name="Path 47" d="M1399.355,8387.248h0a.894.894,0,0,1,.9.895v11.67a.9.9,0,0,1-.9.895h0a.9.9,0,0,1-.893-.895v-11.67a.893.893,0,0,1,.893-.895Z" transform="translate(223.591 31.093)" fill="#fff"/>
    <path id="Path_48" data-name="Path 48" d="M1406.984,8388.756h-3.733a.755.755,0,0,1-.753-.754h0a.754.754,0,0,1,.753-.754h9.254a.753.753,0,0,1,.755.754h0a.754.754,0,0,1-.755.754h-3.729v11.057a.9.9,0,0,1-.9.895h0a.9.9,0,0,1-.893-.895v-11.057Z" transform="translate(227.157 31.093)" fill="#fff"/>
    <path id="Path_49" data-name="Path 49" d="M1411.078,8398.893l8.122-10.137h-6.973a.754.754,0,0,1-.754-.754h0a.753.753,0,0,1,.754-.754h7.969a1.113,1.113,0,0,1,1.115,1.115v0a1.119,1.119,0,0,1-.245.7l-8.1,10.137h7.822a.753.753,0,0,1,.753.754h0a.753.753,0,0,1-.753.754h-8.835a1.115,1.115,0,0,1-1.117-1.117h0a1.119,1.119,0,0,1,.245-.7Z" transform="translate(234.521 31.093)" fill="#fff"/>
    <path id="Path_50" data-name="Path 50" d="M1420.586,8387.248h7.647a.753.753,0,0,1,.755.754h0a.754.754,0,0,1-.755.754h-6.749v4.279h6.24a.754.754,0,0,1,.753.754h0a.753.753,0,0,1-.753.754h-6.24v4.656h6.807a.754.754,0,0,1,.753.754h0a.754.754,0,0,1-.753.754h-7.706a.891.891,0,0,1-.891-.891v-11.68a.888.888,0,0,1,.891-.889Z" transform="translate(242.35 31.093)" fill="#fff"/>
    <path id="Path_51" data-name="Path 51" d="M1433.49,8393.449c1.659,0,3.112-.436,3.112-2.4a2.121,2.121,0,0,0-2.4-2.3h-4.447v4.693Zm-5.522-5.312a.887.887,0,0,1,.887-.889h5.445c2.545,0,4.093,1.355,4.093,3.523a3.193,3.193,0,0,1-2.338,3.412v.039c1.563.3,1.865,1.471,2.016,2.77a15.293,15.293,0,0,0,.267,2.621.889.889,0,0,1-.872,1.094h0a.9.9,0,0,1-.891-.773c-.094-.693-.021-1.648-.2-2.545-.207-1.3-.509-2.432-2.243-2.432h-4.372v4.854a.9.9,0,0,1-.9.9h0a.9.9,0,0,1-.895-.9v-11.674Z" transform="translate(249.66 31.093)" fill="#fff"/>
    <path id="Path_52" data-name="Path 52" d="M1438,8387.248h0a.892.892,0,0,1,.893.895V8399.2h6.374a.755.755,0,0,1,.755.754h0a.755.755,0,0,1-.755.754H1438a.9.9,0,0,1-.9-.895v-11.67a.894.894,0,0,1,.9-.895Z" transform="translate(257.731 31.093)" fill="#fff"/>
    <path id="Path_53" data-name="Path 53" d="M1448.228,8395.148h4.564l-2.245-6.277h-.036l-2.283,6.277Zm2.328-7.9h0a1.448,1.448,0,0,1,1.35.922l4.443,11.371a.854.854,0,0,1-.8,1.166h-.126a.854.854,0,0,1-.8-.564l-1.266-3.488h-5.694l-1.3,3.494a.856.856,0,0,1-.8.559h0a.856.856,0,0,1-.8-1.166l4.445-11.371a1.448,1.448,0,0,1,1.349-.922Z" transform="translate(264.446 31.093)" fill="#fff"/>
    <path id="Path_54" data-name="Path 54" d="M1455.385,8387.248h0a1.231,1.231,0,0,1,1.036.561l6.724,10.354h.036V8388.1a.848.848,0,0,1,.848-.848h0a.848.848,0,0,1,.849.848v11.377a1.235,1.235,0,0,1-1.236,1.234h-.056a1.239,1.239,0,0,1-1.034-.561l-6.666-10.242h-.036v9.957a.848.848,0,0,1-.849.846h0a.846.846,0,0,1-.847-.846v-11.377a1.234,1.234,0,0,1,1.234-1.236Z" transform="translate(272.792 31.093)" fill="#fff"/>
    <path id="Path_55" data-name="Path 55" d="M1465.426,8399.2h2.978c1.224,0,4.524-.34,4.524-5.3,0-3.2-1.188-5.145-4.488-5.145h-3.014V8399.2Zm-1.791-11.062a.887.887,0,0,1,.889-.889h3.729c4.147,0,6.466,2.094,6.466,6.41,0,4.5-1.98,7.049-6.466,7.049h-3.729a.89.89,0,0,1-.889-.891v-11.68Z" transform="translate(281.172 31.093)" fill="#fff"/>
    <path id="Path_56" data-name="Path 56" d="M1481.2,8389.039a3.365,3.365,0,1,1-3.356,3.354,3.355,3.355,0,0,1,3.356-3.354Z" transform="translate(293.728 32.676)" fill="#fff"/>
    <path id="Path_57" data-name="Path 57" d="M1500.5,8387.248h0a.892.892,0,0,1,.895.895v5.814l6.592-6.48a.794.794,0,0,1,.56-.229h0a.8.8,0,0,1,.552,1.373l-4.236,4.055,4.841,6.586a.908.908,0,0,1-.733,1.445h0a.913.913,0,0,1-.74-.379l-4.59-6.428-2.245,2.094v3.818a.9.9,0,0,1-.895.895h0a.9.9,0,0,1-.895-.895v-11.67a.894.894,0,0,1,.895-.895Z" transform="translate(312.95 31.093)" fill="#fff"/>
    <path id="Path_58" data-name="Path 58" d="M1516.818,8389.039a3.365,3.365,0,1,1-3.356,3.354,3.353,3.353,0,0,1,3.356-3.354Z" transform="translate(325.194 32.676)" fill="#fff"/>
    <path id="Path_59" data-name="Path 59" d="M1543.308,8391.32a.811.811,0,0,1-.78-.623c-.386-1.434-1.53-2.047-3.127-2.047-1.48,0-2.923.531-2.923,2.232,0,3.219,8.357.949,8.357,6.088,0,2.783-2.724,3.9-5.1,3.9-2.616,0-4.869-1.156-5.315-3.666a.805.805,0,0,1,.795-.941h.043a.824.824,0,0,1,.795.684c.343,1.709,1.983,2.461,3.737,2.461,1.571,0,3.31-.494,3.31-2.377,0-3.586-8.355-1.227-8.355-6.018,0-2.631,2.341-3.82,4.735-3.82,2.343,0,4.208.973,4.69,3.15a.807.807,0,0,1-.785.98Z" transform="translate(343.697 31.044)" fill="#fff"/>
    <path id="Path_60" data-name="Path 60" d="M1546.328,8395.148h4.56l-2.241-6.277h-.036l-2.283,6.277Zm2.328-7.9h0a1.447,1.447,0,0,1,1.348.922l4.443,11.371a.855.855,0,0,1-.8,1.166h-.126a.856.856,0,0,1-.8-.564l-1.268-3.488h-5.69l-1.3,3.494a.852.852,0,0,1-.8.559h0a.855.855,0,0,1-.8-1.166l4.443-11.371a1.448,1.448,0,0,1,1.351-.922Z" transform="translate(351.117 31.093)" fill="#fff"/>
  </g>
</svg>
