<svg width="600" height="741" viewBox="0 0 600 741" fill="none" xmlns="http://www.w3.org/2000/svg">
<g clip-path="url(#clip0)">
<path d="M0 617.821L146.976 355.141L293.553 617.821H0Z" fill="white"/>
<path d="M0 0.0264877V617.822L146.976 362.871L293.553 617.822H599.886V0.0264877H0Z" fill="#274CA1"/>
<path d="M11.9727 731.13C22.4101 731.13 29.6813 731.049 34.8155 726.677C39.7717 722.483 42.5093 715.665 42.5093 706.827C42.5093 698.002 39.8592 691.368 34.8155 687.071C29.7749 682.699 22.5007 682.527 11.9727 682.527H7.36664V731.13H11.9727ZM0.00488281 675.628H11.7161C23.1828 675.628 31.9903 675.628 39.4305 681.479C46.4392 686.99 50.1186 695.722 50.1186 706.915C50.1186 718.102 46.4392 726.767 39.4305 732.272C32.3314 737.873 24.2875 738.12 14.3783 738.12C13.5211 738.12 12.5763 738.12 11.7161 738.12H0.00488281V675.628Z" fill="#274CA1"/>
<path d="M98.0332 675.628H130.266V682.452H105.298V700.363H130.266V707.262H105.298V731.23H130.266V738.12H98.0332V675.628Z" fill="#274CA1"/>
<path d="M178.621 675.628H185.895V731.049H208.977V738.12H178.621V675.628Z" fill="#274CA1"/>
<path d="M259.587 682.699H242.308V675.628H284.127V682.699H266.937V738.12H259.587V682.699Z" fill="#274CA1"/>
<path d="M331.524 712.594H351.016L341.267 689.614L331.524 712.594ZM369.066 738.12H361.194L353.24 718.977H329.389L321.436 738.12H313.564L341.267 673.167L369.066 738.12Z" fill="#274CA1"/>
<path d="M467.229 675.628H474.406V703.421L500.068 675.628H508.785L482.532 703.769L511.35 738.12H501.954L474.406 704.469V738.12H467.229V675.628Z" fill="#274CA1"/>
<path d="M548.334 673.167L593.045 723.092V675.628H599.972V740.575L555.255 691.184V738.12H548.334V673.167Z" fill="#274CA1"/>
<path d="M293.553 414.784H333.239V492.448L388.897 414.784H438.283L366.914 511.881L438.283 617.821H388.897L333.239 531.866V617.821H293.553V414.784" fill="#AADA34"/>
<path d="M439.158 547.289C439.158 502.451 460.271 479.896 501.662 479.896C519.365 479.896 535.353 486.741 546.198 497.877C559.327 511.298 561.039 526.44 561.039 547.289V617.821H524.782V547.289C524.782 527.291 516.79 517.593 500.235 517.593C483.401 517.593 475.976 527.014 475.976 547.289V617.821H439.158V547.289" fill="#AADA34"/>
</g>
<defs>
<clipPath id="clip0">
<rect width="600" height="740.575" fill="white"/>
</clipPath>
</defs>
</svg>
