<!-- Generated by IcoMoon.io -->
<svg version="1.1" xmlns="http://www.w3.org/2000/svg" width="640" height="640" viewBox="0 0 640 640">
<title></title>
<g id="icomoon-ignore">
</g>
<path fill="#ffffff" d="M514.966 133.001h-389.913c-32.948 0.036-59.646 26.731-59.688 59.668v254.642c0.036 32.947 26.739 59.652 59.683 59.688h389.919c32.944-0.042 59.639-26.739 59.676-59.683v-254.641c-0.042-32.941-26.735-59.632-59.668-59.676h-0.004zM534.849 447.312c-0.007 10.982-8.906 19.887-19.887 19.902h-389.914c-10.983-0.014-19.887-8.916-19.902-19.899v-254.638c0.014-10.982 8.916-19.88 19.902-19.887h389.913c10.975 0.014 19.873 8.908 19.887 19.887v0.004z"></path>
<path fill="#ffffff" d="M531.474 157.803l-211.474 157.339-211.474-157.288-23.744 31.918 235.222 174.961 235.222-174.961z"></path>
</svg>
