<!-- Generated by IcoMoon.io -->
<svg version="1.1" xmlns="http://www.w3.org/2000/svg" width="640" height="640" viewBox="0 0 640 640">
<title></title>
<g id="icomoon-ignore">
</g>
<path fill="#ffffff" d="M255.477 225.822c0 17.338-14.055 31.393-31.393 31.393s-31.392-14.055-31.392-31.393c0-17.338 14.055-31.393 31.392-31.393s31.393 14.055 31.393 31.393z"></path>
<path fill="#ffffff" d="M192.691 272.898h62.786v172.648h-62.786v-172.648z"></path>
<path fill="#ffffff" d="M320 48c-150.222 0-272 121.779-272 272s121.779 272 272 272c150.222 0 272-121.779 272-272v0c-0.211-150.138-121.864-271.789-271.98-272h-0.020zM320 554.585c-129.5-0.076-234.451-105.074-234.451-234.585 0-129.557 105.026-234.585 234.585-234.585s234.585 105.026 234.585 234.585v0c-0.151 129.543-105.162 234.508-234.709 234.585h-0.007z"></path>
<path fill="#ffffff" d="M402.371 272.898c-47.075 0-52.728 27.943-52.728 27.943v-27.943h-62.786v172.648h62.786v-94.206s0-31.392 26.683-31.392c15.697 0 20.406 13.971 20.406 31.392v94.206h62.772v-94.206c0-49.094-21.349-78.442-57.134-78.442z"></path>
</svg>
