<!-- Generated by IcoMoon.io -->
<svg version="1.1" xmlns="http://www.w3.org/2000/svg" width="640" height="640" viewBox="0 0 640 640">
<title></title>
<g id="icomoon-ignore">
</g>
<path fill="#ffffff" d="M319.988 80.023c-93.174 0.075-168.686 75.586-168.761 168.756v0.006c-0.001 0.108-0.001 0.231-0.001 0.359 0 32.699 9.427 63.196 25.711 88.924l-0.404-0.681 132.005 216.006c2.030 3.443 5.482 5.863 9.53 6.459l0.071 0.009c0.283 0.024 0.611 0.035 0.942 0.035s0.661-0.014 0.985-0.040l-0.043 0.005v0.146c0.192 0 0.371-0.133 0.565-0.133 2.231-0.013 4.336-0.541 6.202-1.477l-0.080 0.036c0.265-0.133 0.468-0.314 0.733-0.467 2.101-1.177 3.809-2.827 5.021-4.814l0.033-0.061 132.376-217.999c7.371-11.937 13.467-25.721 17.582-40.336l0.277-1.149c3.839-13.423 6.044-28.843 6.044-44.772 0-93.211-75.539-168.784-168.74-168.831h-0.005zM319.988 333.158c-46.599 0-84.374-37.777-84.374-84.374s37.777-84.374 84.374-84.374c46.599 0 84.374 37.777 84.374 84.374v0c0 0.033 0 0.071 0 0.108 0 46.54-37.729 84.267-84.267 84.267-0.038 0-0.077 0-0.115 0h0.005z"></path>
</svg>
